<svg width="42" height="14" viewBox="0 0 42 14" fill="none" xmlns="http://www.w3.org/2000/svg">
<path d="M5.746 2.63C6.239 2.63 6.375 2.494 6.375 2.001V0.878999C6.375 0.385999 6.239 0.249999 5.746 0.249999H0.68C0.187 0.249999 0.051 0.385999 0.051 0.878999V2.001C0.051 2.494 0.187 2.63 0.68 2.63H1.734C1.972 2.63 2.04 2.698 2.04 2.936V12.371C2.04 12.864 2.176 13 2.669 13H3.757C4.25 13 4.386 12.864 4.386 12.371V2.936C4.386 2.698 4.454 2.63 4.692 2.63H5.746ZM11.1208 0.878999V9.838C11.1208 10.518 10.8148 10.79 10.1858 10.79C9.53979 10.79 9.25079 10.518 9.25079 9.838V0.878999C9.25079 0.385999 9.11479 0.249999 8.62179 0.249999H7.53379C7.04079 0.249999 6.90479 0.385999 6.90479 0.878999V9.43C6.90479 12.167 7.72079 13.17 10.1858 13.17C12.6508 13.17 13.4668 12.167 13.4668 9.43V0.878999C13.4668 0.385999 13.3308 0.249999 12.8378 0.249999H11.7498C11.2568 0.249999 11.1208 0.385999 11.1208 0.878999ZM19.6913 2.63C20.1843 2.63 20.3203 2.494 20.3203 2.001V0.878999C20.3203 0.385999 20.1843 0.249999 19.6913 0.249999H14.6253C14.1323 0.249999 13.9963 0.385999 13.9963 0.878999V2.001C13.9963 2.494 14.1323 2.63 14.6253 2.63H15.6793C15.9173 2.63 15.9853 2.698 15.9853 2.936V12.371C15.9853 12.864 16.1213 13 16.6143 13H17.7023C18.1953 13 18.3313 12.864 18.3313 12.371V2.936C18.3313 2.698 18.3993 2.63 18.6373 2.63H19.6913ZM23.1649 10.348V0.878999C23.1649 0.385999 23.0289 0.249999 22.5359 0.249999H21.4479C20.9549 0.249999 20.8189 0.385999 20.8189 0.878999V12.371C20.8189 12.864 20.9549 13 21.4479 13H25.5959C26.0889 13 26.2249 12.864 26.2249 12.371V11.249C26.2249 10.756 26.0889 10.62 25.5959 10.62H23.4709C23.2329 10.62 23.1649 10.552 23.1649 10.348ZM30.8766 0.878999V9.838C30.8766 10.518 30.5706 10.79 29.9416 10.79C29.2956 10.79 29.0066 10.518 29.0066 9.838V0.878999C29.0066 0.385999 28.8706 0.249999 28.3776 0.249999H27.2896C26.7966 0.249999 26.6606 0.385999 26.6606 0.878999V9.43C26.6606 12.167 27.4766 13.17 29.9416 13.17C32.4066 13.17 33.2226 12.167 33.2226 9.43V0.878999C33.2226 0.385999 33.0866 0.249999 32.5936 0.249999H31.5056C31.0126 0.249999 30.8766 0.385999 30.8766 0.878999ZM35.3102 13H37.6392C40.2232 13 41.3962 12.082 41.3962 10.11V8.461C41.3962 7.56 41.0732 6.999 40.4272 6.472C40.3762 6.421 40.3592 6.404 40.3592 6.37C40.3592 6.336 40.3762 6.319 40.4272 6.268C41.0222 5.724 41.3112 5.095 41.3112 4.211V3.225C41.3112 1.168 40.1892 0.249999 37.7242 0.249999H35.3102C34.8172 0.249999 34.6812 0.385999 34.6812 0.878999V12.371C34.6812 12.864 34.8172 13 35.3102 13ZM37.0272 2.936C37.0272 2.698 37.0952 2.63 37.3332 2.63H37.6902C38.5232 2.63 38.8972 2.919 38.8972 3.667V4.16C38.8972 4.908 38.5232 5.197 37.6902 5.197H37.3332C37.0952 5.197 37.0272 5.129 37.0272 4.891V2.936ZM37.7752 10.62H37.3332C37.0952 10.62 37.0272 10.552 37.0272 10.314V7.883C37.0272 7.645 37.0952 7.577 37.3332 7.577H37.7752C38.6082 7.577 38.9822 7.866 38.9822 8.614V9.583C38.9822 10.331 38.6082 10.62 37.7752 10.62Z" fill="white"/>
</svg>
