<svg width="41" height="40" viewBox="0 0 41 40" fill="none" xmlns="http://www.w3.org/2000/svg">
<rect width="40.8696" height="40" rx="8" fill="url(#paint0_linear_1_460)"/>
<path d="M33.6717 13.9302L31.77 18.8873C31.7491 18.9416 31.7301 19.0075 31.7718 19.0483L32.9173 20.1714L33.3417 20.6799L33.5163 20.9196C33.557 20.9755 33.5932 21.0344 33.6245 21.0958L33.7239 21.2907C33.7516 21.3451 33.7661 21.4051 33.7661 21.4659C33.7661 21.5267 33.7516 21.5866 33.7239 21.641L33.7123 21.6638C33.6855 21.7164 33.6494 21.7639 33.6058 21.8041L33.1773 22.1995C32.9732 22.3879 32.7484 22.5537 32.5072 22.6938L31.597 23.2227L29.8052 24.0086L28.0133 24.6096L26.3158 25.0257L24.8069 25.3493L23.3923 25.6267L21.8362 25.7654L20.846 25.8116L19.8086 25.8578H16.1778L14.999 25.8116L14.2445 25.7192L13.4901 25.5805L12.3584 25.2568L11.6039 24.9794L11.2756 24.81C10.8977 24.615 10.5347 24.3935 10.1893 24.1473L10.0686 24.0388C9.7723 23.7725 9.49737 23.4842 9.24626 23.1764L8.96334 22.7603L8.82188 22.5292L8.78794 22.4626C8.71658 22.3227 8.66456 22.1741 8.63326 22.0206C8.60187 21.7436 8.59071 21.4647 8.59987 21.1861L8.63326 20.1714L8.82188 19.0156L9.15195 17.906L9.29341 17.4437L8.77472 17.9985L7.94036 19.0704C7.58566 19.5261 7.27261 20.0116 7.00486 20.5212L6.91952 20.6836C6.71068 21.0811 6.53769 21.4957 6.40253 21.9227C6.25536 22.3876 6.15368 22.8652 6.09885 23.349L6.08698 23.4538V23.9624C6.11836 24.2701 6.17496 24.5748 6.25623 24.8736L6.32274 25.1181L6.3582 25.2016C6.49156 25.5154 6.64806 25.8193 6.82646 26.1108C7.02473 26.4348 7.24943 26.7425 7.49835 27.0309L7.64304 27.1986L8.39749 27.892L9.29341 28.5393L10.1422 29.0016L11.0852 29.4177L12.1226 29.7413L13.8201 30.1574L15.2347 30.3423L17.0266 30.4348H19.8086L21.9305 30.2498L24.2411 29.88L25.8914 29.4639L28.0133 28.7704L29.0507 28.3081L30.1824 27.7533L31.2198 27.1523L32.6344 26.0428L33.8132 24.887L33.8551 24.8384C34.1718 24.4714 34.4427 24.0687 34.662 23.6387L34.8983 23.1121C35.0862 22.6933 35.2403 22.2607 35.3591 21.8182L35.3918 21.6961C35.5647 21.0522 35.6522 20.3891 35.6522 19.7232C35.6522 19.1301 35.5828 18.5391 35.4453 17.9615L35.3221 17.4437L34.8034 15.9643L34.3319 14.9935L33.6717 13.9302Z" fill="white"/>
<path d="M14.6518 12.2836C14.453 12.0806 14.4597 11.758 14.6667 11.5632L16.6383 9.70717C16.8453 9.51228 17.1743 9.51884 17.3731 9.72182L19.7233 12.1218C19.9221 12.3248 19.9154 12.6473 19.7084 12.8422L17.7368 14.6982C17.5298 14.8931 17.2008 14.8865 17.002 14.6835L14.6518 12.2836Z" fill="white"/>
<path d="M21.8191 12.2836C21.6203 12.0806 21.627 11.758 21.834 11.5632L23.8056 9.70717C24.0127 9.51228 24.3416 9.51884 24.5404 9.72182L26.8907 12.1218C27.0895 12.3248 27.0828 12.6473 26.8757 12.8422L24.9041 14.6982C24.6971 14.8931 24.3681 14.8865 24.1693 14.6835L21.8191 12.2836Z" fill="white"/>
<defs>
<linearGradient id="paint0_linear_1_460" x1="39.5271" y1="40" x2="31.9689" y2="6.75846" gradientUnits="userSpaceOnUse">
<stop stop-color="#F6CF9A"/>
<stop offset="1" stop-color="#7A4BD7"/>
</linearGradient>
</defs>
</svg>
