<svg width="13" height="15" viewBox="0 0 13 15" fill="none" xmlns="http://www.w3.org/2000/svg">
<path d="M6.49983 4.66073e-06C6.80291 4.66073e-06 7.0526 0.222766 7.08681 0.509658L7.09078 0.576935V13.0294L11.9913 8.24597C12.2042 8.03796 12.5394 8.02195 12.7713 8.19794L12.8269 8.24597C13.0399 8.45387 13.0563 8.78115 12.8761 9.00749L12.8269 9.0619L6.91786 14.831C6.89696 14.8514 6.87489 14.87 6.85174 14.8867L6.78604 14.9281L6.71938 14.9589L6.65723 14.9793L6.56945 14.996L6.50001 15L6.45553 14.9984L6.38137 14.9883L6.31557 14.9713L6.24988 14.9459L6.19233 14.9158L6.13789 14.879L6.08216 14.831L0.173133 9.0619C-0.057711 8.83652 -0.057711 8.47124 0.173133 8.24597C0.386078 8.03797 0.721291 8.02196 0.95312 8.19795L1.00874 8.24597L5.90924 13.0294V0.576939C5.90924 0.258322 6.17384 0 6.50017 0L6.49983 4.66073e-06Z" fill="url(#paint0_linear_94_1330)"/>
<defs>
<linearGradient id="paint0_linear_94_1330" x1="12.573" y1="15" x2="9.29435" y2="2.76884" gradientUnits="userSpaceOnUse">
<stop stop-color="#F6CF9A"/>
<stop offset="1" stop-color="#7A4BD7"/>
</linearGradient>
</defs>
</svg>
